M48
; DRILL file KiCad 10.0.6 date 2026-09-29T11:48:35
; FORMAT={-:-/ absolute / metric / decimal}
; #@! TF.CreationDate,2026-09-29T11:48:35+02:00
; #@! TF.GenerationSoftware,Kicad,Pcbnew,10.0.6
; #@! TF.FileFunction,Plated,1,6,PTH
FMAT,2
METRIC
; #@! TA.AperFunction,Plated,PTH,ViaDrill
T1C0.300
; #@! TA.AperFunction,Plated,PTH,ComponentDrill
T2C0.330
; #@! TA.AperFunction,Plated,PTH,ComponentDrill
T3C0.700
; #@! TA.AperFunction,Plated,PTH,ComponentDrill
T4C1.000
; #@! TA.AperFunction,Plated,PTH,ComponentDrill
T5C1.016
; #@! TA.AperFunction,Plated,PTH,ComponentDrill
T6C1.143
; #@! TA.AperFunction,Plated,PTH,ComponentDrill
T7C1.397
; #@! TA.AperFunction,Plated,PTH,ComponentDrill
T8C1.500
; #@! TA.AperFunction,Plated,PTH,ComponentDrill
T9C1.600
; #@! TA.AperFunction,Plated,PTH,ComponentDrill
T10C3.200
%
G90
G05
T1
X52.39Y-67.7
X52.39Y-69.3
X52.39Y-70.8
X52.39Y-72.3
X52.39Y-73.8
X52.39Y-75.39
X52.39Y-76.89
X52.4Y-78.7
X52.4Y-80.171
X52.4Y-81.642
X52.4Y-83.114
X52.4Y-84.585
X52.4Y-86.056
X52.4Y-87.527
X52.4Y-88.999
X52.4Y-90.47
X53.94Y-67.7
X53.94Y-69.3
X53.94Y-70.8
X53.94Y-72.3
X53.94Y-73.8
X53.94Y-75.39
X53.94Y-76.89
X53.95Y-78.7
X53.95Y-80.171
X53.95Y-81.642
X53.95Y-83.114
X53.95Y-84.585
X53.95Y-86.056
X53.95Y-87.527
X53.95Y-88.999
X53.95Y-90.47
X55.425Y-69.4
X55.425Y-70.828
X55.425Y-72.346
X55.425Y-73.864
X55.425Y-75.382
X55.425Y-76.9
X55.45Y-46.8
X55.46Y-78.73
X55.46Y-80.201
X55.46Y-81.672
X55.46Y-83.144
X55.46Y-84.615
X55.46Y-86.086
X55.46Y-87.557
X55.46Y-89.029
X55.46Y-90.5
X55.475Y-45.2
X55.525Y-37.1
X55.525Y-40.4
X55.525Y-42.0
X55.525Y-43.6
X56.625Y-92.4
X56.725Y-51.3
X56.75Y-52.9
X56.975Y-69.4
X56.975Y-70.828
X56.975Y-72.346
X56.975Y-73.864
X56.975Y-75.382
X56.975Y-76.9
X57.01Y-78.73
X57.01Y-80.201
X57.01Y-81.672
X57.01Y-83.144
X57.01Y-84.615
X57.01Y-86.086
X57.01Y-87.557
X57.01Y-89.029
X57.01Y-90.5
X62.65Y-111.8
X62.7Y-94.4
X63.2Y-63.2
X63.8Y-94.438
X64.325Y-118.325
X64.4Y-111.75
X64.9Y-94.4
X65.019Y-81.043
X65.019Y-82.633
X65.075Y-69.95
X65.075Y-74.8
X65.075Y-76.41
X65.075Y-84.125
X65.075Y-88.85
X65.1Y-85.723
X65.1Y-87.3
X65.1Y-90.4
X65.1Y-92.0
X65.15Y-66.8
X65.15Y-68.4
X65.6Y-62.8
X65.9Y-112.7
X66.16Y-105.75
X66.55Y-88.8
X66.55Y-92.0
X66.6Y-111.8
X66.65Y-84.2
X66.725Y-76.41
X66.779Y-71.625
X66.9Y-113.6
X67.3Y-112.7
X67.92Y-105.75
X68.2Y-109.525
X68.2Y-111.8
X68.3Y-113.6
X68.472Y-92.7
X68.6Y-112.7
X69.475Y-118.325
X69.5Y-111.8
X69.5Y-113.6
X69.7Y-68.4
X69.7Y-69.923
X69.7Y-71.5
X69.7Y-74.7
X69.7Y-76.31
X69.7Y-81.1
X69.7Y-82.6
X69.7Y-84.293
X69.7Y-90.39
X69.7Y-92.0
X69.7Y-105.75
X69.706Y-85.8
X69.71Y-100.0
X69.725Y-77.91
X69.725Y-79.5
X69.785Y-98.3
X71.35Y-92.0
X71.9Y-116.575
X71.9Y-118.315
X72.1Y-88.0
X72.3Y-60.25
X72.342Y-56.7
X73.6Y-100.1
X73.9Y-60.25
X74.2Y-61.9
X74.25Y-90.305
X74.25Y-92.005
X74.275Y-87.015
X74.275Y-88.615
X74.3Y-80.4
X74.3Y-83.705
X74.3Y-85.415
X74.322Y-82.037
X75.5Y-60.325
X75.9Y-90.305
X75.925Y-82.071
X75.925Y-85.382
X75.925Y-87.015
X76.35Y-71.0
X76.35Y-72.6
X76.95Y-116.575
X77.1Y-60.325
X77.725Y-83.2
X78.502Y-78.297
X78.55Y-103.35
X78.672Y-79.165
X78.7Y-60.275
X78.852Y-71.752
X79.712Y-80.205
X79.948Y-72.848
X79.952Y-70.652
X80.3Y-60.275
X80.409Y-80.425
X80.525Y-73.999
X80.625Y-85.4
X80.825Y-83.8
X81.048Y-71.748
X81.1Y-77.2
X82.1Y-78.7
X82.3Y-82.5
X82.375Y-83.8
X82.375Y-85.4
X82.7Y-79.4
X83.0Y-75.2
X83.468Y-111.8
X83.7Y-92.8
X83.8Y-70.5
X83.9Y-85.025
X83.9Y-86.575
X85.143Y-118.325
X85.218Y-111.75
X85.446Y-86.652
X85.6Y-72.8
X86.4Y-58.7
X86.718Y-112.7
X87.4Y-106.007
X87.418Y-111.8
X87.692Y-83.983
X87.718Y-113.6
X88.118Y-112.7
X88.4Y-69.8
X88.4Y-90.725
X88.65Y-59.3
X88.9Y-109.55
X89.018Y-111.8
X89.118Y-113.6
X89.16Y-106.007
X89.2Y-69.0
X89.418Y-112.7
X89.991Y-68.301
X90.115Y-90.725
X90.2Y-99.637
X90.293Y-118.325
X90.318Y-111.8
X90.318Y-113.6
X90.581Y-69.181
X90.94Y-106.007
X90.95Y-61.2
X91.281Y-69.79
X91.475Y-63.6
X91.9Y-70.0
X91.956Y-67.074
X92.2Y-84.2
X92.4Y-83.1
X92.6Y-70.8
X92.675Y-82.118
X92.718Y-116.575
X92.718Y-118.315
X93.124Y-83.347
X93.209Y-81.322
X93.3Y-87.0
X93.5Y-71.7
X93.575Y-65.7
X94.067Y-80.271
X94.2Y-99.8
X94.411Y-80.849
X95.108Y-80.914
X95.225Y-65.7
X95.9Y-74.2
X96.5Y-79.4
X96.7Y-99.1
X96.7Y-100.65
X96.8Y-75.1
X97.2Y-82.6
X97.768Y-116.575
X98.417Y-99.1
X98.417Y-100.65
X99.368Y-103.35
X99.4Y-80.3
X100.0Y-60.175
X100.054Y-90.103
X100.054Y-95.078
X100.2Y-65.1
X100.275Y-86.678
X100.3Y-85.068
X100.5Y-78.1
X101.3Y-102.6
X101.3Y-104.8
X101.337Y-103.7
X101.6Y-60.175
X101.654Y-90.103
X101.664Y-95.078
X101.775Y-65.1
X101.825Y-62.1
X101.825Y-63.6
X102.25Y-73.4
X103.175Y-71.4
X103.2Y-60.175
X103.444Y-87.603
X103.454Y-92.628
X103.49Y-82.95
X103.867Y-99.05
X103.867Y-100.6
X103.9Y-74.9
X104.05Y-95.7
X104.05Y-97.417
X104.25Y-111.8
X104.26Y-63.625
X104.8Y-73.5
X104.825Y-71.4
X105.054Y-87.603
X105.064Y-92.628
X105.1Y-82.95
X105.4Y-76.5
X105.583Y-99.05
X105.583Y-100.6
X105.6Y-95.7
X105.6Y-97.417
X105.7Y-72.4
X105.8Y-63.625
X105.925Y-118.325
X106.0Y-111.75
X106.4Y-60.3
X107.0Y-76.5
X107.262Y-103.7
X107.3Y-99.05
X107.3Y-100.6
X107.3Y-102.6
X107.3Y-104.8
X107.5Y-112.7
X107.6Y-115.9
X107.8Y-75.5
X108.0Y-60.1
X108.2Y-111.8
X108.5Y-113.6
X108.9Y-112.7
X109.75Y-102.325
X109.75Y-104.085
X109.75Y-105.865
X109.75Y-109.438
X109.8Y-111.8
X109.9Y-113.6
X110.08Y-74.47
X110.2Y-112.7
X110.999Y-75.211
X111.075Y-118.325
X111.1Y-111.8
X111.1Y-113.6
X111.3Y-102.325
X111.3Y-104.085
X111.3Y-105.865
X111.707Y-115.607
X113.5Y-116.575
X113.5Y-118.315
X116.3Y-60.225
X116.3Y-91.3
X116.65Y-89.202
X116.8Y-116.8
X117.21Y-88.666
X117.9Y-60.225
X117.997Y-87.8
X118.4Y-80.053
X119.2Y-88.4
X119.35Y-65.6
X119.5Y-60.175
X119.903Y-86.4
X120.15Y-103.35
X120.36Y-85.33
X120.47Y-87.01
X120.56Y-75.49
X120.73Y-88.54
X120.882Y-84.592
X120.96Y-76.02
X121.1Y-60.175
X121.2Y-98.2
X121.5Y-78.8
X121.5Y-84.5
X122.0Y-63.65
X122.19Y-78.915
X122.2Y-84.5
X122.525Y-91.0
X122.525Y-92.6
X122.7Y-102.8
X122.89Y-78.898
X122.9Y-84.6
X123.0Y-101.2
X123.1Y-69.225
X123.5Y-106.9
X123.5Y-108.1
X123.5Y-109.3
X123.559Y-85.707
X123.59Y-78.875
X123.6Y-63.7
X124.2Y-85.6
X124.289Y-78.908
X124.864Y-85.379
X124.989Y-78.898
X125.485Y-85.056
X125.689Y-78.876
X126.061Y-84.658
X126.37Y-91.86
X126.389Y-78.883
X126.4Y-92.6
X126.6Y-80.596
X126.621Y-81.264
X126.644Y-84.271
X127.057Y-78.675
X128.9Y-77.3
X129.4Y-106.8
X129.4Y-108.1
X129.4Y-109.4
X130.0Y-77.3
X130.65Y-71.25
X131.0Y-68.8
X131.5Y-77.4
X132.082Y-77.4
X132.2Y-75.5
X132.782Y-77.394
X132.95Y-73.15
X133.2Y-95.4
X133.4Y-96.1
X133.5Y-102.287
X133.59Y-104.15
X133.59Y-105.7
X135.0Y-77.2
X135.26Y-104.15
X135.26Y-105.7
X135.29Y-102.287
X136.5Y-77.3
X136.93Y-104.15
X136.93Y-105.7
X137.1Y-102.287
X137.4Y-56.202
X137.4Y-77.3
X138.6Y-104.15
X138.6Y-105.7
X138.85Y-39.9
X139.0Y-77.4
X139.1Y-96.1
X139.4Y-88.7
X139.6Y-95.253
X140.26Y-104.125
X140.26Y-105.675
X140.3Y-101.0
X140.3Y-102.55
X140.6Y-97.85
X141.371Y-95.184
X141.7Y-81.8
X141.8Y-88.8
X141.9Y-88.1
X141.93Y-104.125
X141.93Y-105.675
X141.97Y-101.0
X141.97Y-102.55
X142.1Y-81.2
X142.1Y-97.875
X142.196Y-78.104
X142.4Y-94.3
X142.65Y-77.496
X144.225Y-39.9
X144.3Y-85.289
X144.35Y-80.236
X144.486Y-81.607
X144.55Y-80.9
X144.6Y-87.0
X144.8Y-83.3
X145.284Y-86.253
X145.8Y-82.463
X145.8Y-85.277
X145.966Y-81.541
X146.9Y-78.275
X147.2Y-57.65
X147.2Y-64.85
X147.2Y-68.075
X148.5Y-78.275
T2
X85.646Y-77.343
X86.495Y-76.494
X86.495Y-78.191
X87.344Y-75.646
X87.344Y-77.343
X87.344Y-79.04
X88.192Y-74.797
X88.192Y-76.494
X88.192Y-78.191
X88.192Y-79.888
X89.041Y-73.949
X89.041Y-75.646
X89.041Y-77.343
X89.041Y-79.04
X89.041Y-80.737
X89.889Y-73.1
X89.889Y-74.797
X89.889Y-76.494
X89.889Y-78.191
X89.889Y-79.888
X89.889Y-81.585
X90.738Y-73.949
X90.738Y-75.646
X90.738Y-77.343
X90.738Y-79.04
X90.738Y-80.737
X91.586Y-74.797
X91.586Y-76.494
X91.586Y-78.191
X91.586Y-79.888
X92.435Y-75.646
X92.435Y-77.343
X92.435Y-79.04
X93.283Y-76.494
X93.283Y-78.191
X94.132Y-77.343
T4
X52.2Y-36.0
X53.0Y-114.5
X60.9Y-91.4
X61.7Y-116.1
X63.3Y-104.2
X63.8Y-108.8
X68.925Y-95.5
X72.7Y-104.02
X72.825Y-95.5
X75.24Y-104.02
X76.3Y-119.4
X76.82Y-95.86
X76.82Y-98.4
X80.44Y-95.885
X80.44Y-98.425
X82.5Y-116.125
X84.6Y-104.225
X84.6Y-108.825
X89.44Y-95.137
X93.325Y-95.3
X93.7Y-104.045
X94.2Y-59.5
X94.2Y-63.1
X96.24Y-104.045
X97.3Y-119.4
X103.25Y-116.075
X105.25Y-108.862
X108.464Y-72.203
X111.004Y-72.203
X111.744Y-80.983
X111.744Y-83.523
X111.744Y-86.063
X111.744Y-88.603
X111.744Y-91.143
X111.744Y-93.683
X111.744Y-96.223
X113.544Y-72.203
X114.3Y-120.9
X114.46Y-104.075
X115.8Y-62.875
X116.084Y-72.203
X116.6Y-68.4
X117.0Y-104.075
X118.624Y-72.203
X119.5Y-62.875
X120.3Y-68.4
X121.164Y-72.203
X121.3Y-100.1
X123.704Y-72.203
X124.9Y-100.1
X124.9Y-103.7
X125.1Y-113.3
X125.86Y-31.68
X125.86Y-34.22
X125.86Y-36.76
X125.86Y-39.3
X125.86Y-41.84
X125.86Y-44.38
X125.86Y-46.92
X125.86Y-49.46
X125.86Y-52.0
X125.86Y-54.54
X128.4Y-31.68
X128.4Y-34.22
X128.4Y-36.76
X128.4Y-39.3
X128.4Y-41.84
X128.4Y-44.38
X128.4Y-46.92
X128.4Y-49.46
X128.4Y-52.0
X128.4Y-54.54
X128.5Y-100.1
X128.5Y-103.7
X132.3Y-65.1
X136.5Y-109.2
X139.04Y-109.2
X139.96Y-46.4
X139.96Y-48.94
X139.96Y-51.48
X139.96Y-54.02
X139.96Y-56.56
X139.96Y-59.1
X139.96Y-61.64
X139.96Y-64.18
X139.96Y-66.72
X139.96Y-69.26
X142.5Y-46.4
X142.5Y-48.94
X142.5Y-51.48
X142.5Y-54.02
X142.5Y-56.56
X142.5Y-59.1
X142.5Y-61.64
X142.5Y-64.18
X142.5Y-66.72
X142.5Y-69.26
X145.8Y-36.0
X145.8Y-114.0
X147.3Y-83.02
X147.3Y-85.56
X147.3Y-88.1
X147.3Y-101.32
X147.3Y-103.86
X147.3Y-106.4
T5
X63.043Y-51.594
X64.059Y-49.054
X65.075Y-51.594
X66.091Y-49.054
X67.107Y-51.594
X68.123Y-49.054
X70.155Y-49.054
X71.171Y-51.594
X72.187Y-49.054
X73.203Y-51.594
X74.219Y-49.054
X75.235Y-51.594
X77.013Y-51.594
X78.029Y-49.054
X79.045Y-51.594
X80.061Y-49.054
X81.077Y-51.594
X82.093Y-49.054
X84.125Y-49.054
X85.141Y-51.594
X86.157Y-49.054
X87.173Y-51.594
X88.189Y-49.054
X89.205Y-51.594
X90.983Y-51.594
X91.999Y-49.054
X93.015Y-51.594
X94.031Y-49.054
X95.047Y-51.594
X96.063Y-49.054
X98.095Y-49.054
X99.111Y-51.594
X100.127Y-49.054
X101.143Y-51.594
X102.159Y-49.054
X103.175Y-51.594
X104.953Y-51.594
X105.969Y-49.054
X106.985Y-51.594
X108.001Y-49.054
X109.017Y-51.594
X110.033Y-49.054
X112.065Y-49.054
X113.081Y-51.594
X114.097Y-49.054
X115.113Y-51.594
X116.129Y-49.054
X117.145Y-51.594
T6
X63.043Y-54.134
X65.583Y-54.134
X72.695Y-54.134
X75.235Y-54.134
X77.013Y-54.134
X79.553Y-54.134
X86.665Y-54.134
X89.205Y-54.134
X90.983Y-54.134
X93.523Y-54.134
X100.635Y-54.134
X103.175Y-54.134
X104.953Y-54.134
X107.493Y-54.134
X114.605Y-54.134
X117.145Y-54.134
T7
X61.075Y-30.639
X61.075Y-42.069
X119.114Y-30.639
X119.114Y-42.069
T8
X54.66Y-97.84
X54.66Y-107.16
T9
X52.12Y-95.3
X52.12Y-100.38
X52.12Y-104.62
X52.12Y-109.7
X57.2Y-95.3
X57.2Y-100.38
X57.2Y-104.62
X57.2Y-109.7
T10
X54.2Y-120.8
X54.25Y-29.2
X145.8Y-29.2
X145.8Y-120.8
T3
X133.05Y-113.45G85X135.55Y-113.45
G05
X133.25Y-119.25G85X135.35Y-119.25
G05
X139.1Y-117.45G85X139.1Y-115.35
G05
M30
